<svg xmlns="http://www.w3.org/2000/svg" version="1.1" xmlns:xlink="http://www.w3.org/1999/xlink" xmlns:svgjs="http://svgjs.dev/svgjs" width="160px" height="160px"><svg xmlns="http://www.w3.org/2000/svg" viewBox="0 0 160 160" width="160px" height="160px">
	<polygon points="0,0 160,0 160,160 0,160" fill="#fff0"></polygon>
	<g>
		<polygon points="45,65 65,45 95,45 115,65 115,95 95,115 65,115 45,95" fill="#383"></polygon>
		<g fill="#bbb">
			<polygon points="20,40 40,20 60,40 40,60"></polygon>
			<polygon points="100,40 120,20 140,40 120,60"></polygon>
			<polygon points="100,120 120,100 140,120 120,140"></polygon>
			<polygon points="20,120 40,100 60,120 40,140"></polygon>
		</g>
	</g>
</svg><style>@media (prefers-color-scheme: light) { :root { filter: none; } }
@media (prefers-color-scheme: dark) { :root { filter: none; } }
</style></svg>