<?xml version="1.0" encoding="utf-8"?>
<svg xmlns="http://www.w3.org/2000/svg" viewBox="0 0 800 160">
	<polygon points="0,0 800,0 800,160 0,160" fill="#fff0"/>
	<g>
		<polygon points="45,65 65,45 95,45 115,65 115,95 95,115 65,115 45,95" fill="#383"/>
		<g fill="#bbb">
			<polygon points="20,40 40,20 60,40 40,60"/>
			<polygon points="100,40 120,20 140,40 120,60"/>
			<polygon points="100,120 120,100 140,120 120,140"/>
			<polygon points="20,120 40,100 60,120 40,140"/>
		</g>
	</g>
    
    <svg x="180" y="9" width="595" viewBox="0 0 632.804 97.105" xmlns="http://www.w3.org/2000/svg"><g id="svgGroup" stroke-linecap="round" fill-rule="evenodd" font-size="9pt" stroke="#333" stroke-width="0.1mm" fill="#333" style="stroke:#333;stroke-width:0.1mm;fill:#333"><path d="M 522.601 42.505 L 522.601 31.305 L 525.801 31.305 L 525.801 72.105 Q 525.801 83.705 519.401 90.405 Q 513.001 97.105 502.601 97.105 Q 496.901 97.105 491.501 94.505 Q 486.101 91.905 483.101 87.705 L 483.101 83.105 Q 485.701 87.905 491.251 91.105 Q 496.801 94.305 502.601 94.305 Q 511.401 94.305 517.001 88.355 Q 522.601 82.405 522.601 72.105 L 522.601 65.405 Q 519.901 70.905 514.101 74.205 Q 508.301 77.505 502.101 77.505 Q 492.301 77.505 485.301 70.555 Q 478.301 63.605 478.301 53.905 Q 478.301 44.205 485.301 37.255 Q 492.301 30.305 502.101 30.305 Q 508.601 30.305 514.251 33.555 Q 519.901 36.805 522.601 42.505 Z M 595.601 50.105 L 595.601 76.305 L 592.401 76.305 L 592.401 31.305 L 595.601 31.305 L 595.601 40.405 Q 600.701 30.205 613.001 30.205 Q 621.401 30.205 627.101 36.005 Q 632.801 41.805 632.801 50.105 L 632.801 76.305 L 629.601 76.305 L 629.601 50.105 Q 629.601 43.205 624.751 38.105 Q 619.901 33.005 613.001 33.005 Q 606.101 33.005 600.851 38.105 Q 595.601 43.205 595.601 50.105 Z M 39.701 77.605 L 38.201 77.605 Q 22.701 77.605 11.351 65.905 Q 0.001 54.205 0.001 38.555 Q 0.001 22.905 11.501 11.455 Q 23.001 0.005 39.101 0.005 Q 55.201 0.005 66.601 11.405 Q 78.001 22.805 78.001 38.555 Q 78.001 54.305 66.701 65.955 Q 55.401 77.605 39.701 77.605 Z M 303.401 77.605 L 301.901 77.605 Q 286.401 77.605 275.051 65.905 Q 263.701 54.205 263.701 38.555 Q 263.701 22.905 275.201 11.455 Q 286.701 0.005 302.801 0.005 Q 318.901 0.005 330.301 11.405 Q 341.701 22.805 341.701 38.555 Q 341.701 54.305 330.401 65.955 Q 319.101 77.605 303.401 77.605 Z M 374.001 77.605 L 373.101 77.605 Q 363.501 77.605 356.601 70.505 Q 349.701 63.405 349.701 53.855 Q 349.701 44.305 356.701 37.355 Q 363.701 30.405 373.901 30.405 Q 384.101 30.405 391.301 38.105 L 391.301 43.205 Q 388.201 38.605 383.451 35.905 Q 378.701 33.205 373.501 33.205 Q 365.201 33.205 359.051 39.355 Q 352.901 45.505 352.901 54.005 Q 352.901 62.505 359.051 68.655 Q 365.201 74.805 373.501 74.805 Q 378.701 74.805 383.451 72.105 Q 388.201 69.405 391.301 64.705 L 391.301 69.905 Q 384.301 77.605 374.001 77.605 Z M 74.701 38.755 Q 74.701 24.005 64.251 13.455 Q 53.801 2.905 39.051 2.905 Q 24.301 2.905 13.801 13.455 Q 3.301 24.005 3.301 38.755 Q 3.301 53.505 13.801 64.105 Q 24.301 74.705 39.001 74.705 Q 53.701 74.705 64.201 64.105 Q 74.701 53.505 74.701 38.755 Z M 338.401 38.755 Q 338.401 24.005 327.951 13.455 Q 317.501 2.905 302.751 2.905 Q 288.001 2.905 277.501 13.455 Q 267.001 24.005 267.001 38.755 Q 267.001 53.505 277.501 64.105 Q 288.001 74.705 302.701 74.705 Q 317.401 74.705 327.901 64.105 Q 338.401 53.505 338.401 38.755 Z M 203.201 77.505 L 202.301 77.505 Q 192.801 77.505 185.751 70.355 Q 178.701 63.205 178.701 53.705 Q 178.701 44.205 185.701 37.255 Q 192.701 30.305 203.001 30.305 Q 213.301 30.305 220.701 38.505 L 189.301 69.505 Q 195.801 74.705 201.801 74.705 Q 207.801 74.705 212.551 71.955 Q 217.301 69.205 220.401 64.605 L 220.401 69.705 Q 213.301 77.505 203.201 77.505 Z M 465.601 31.305 L 468.801 31.305 L 468.801 76.305 L 465.601 76.305 L 465.601 65.105 Q 462.801 70.805 457.201 74.105 Q 451.601 77.405 445.201 77.405 Q 435.401 77.405 428.401 70.455 Q 421.401 63.505 421.401 53.805 Q 421.401 44.105 428.401 37.155 Q 435.401 30.205 445.201 30.205 Q 451.601 30.205 457.451 33.605 Q 463.301 37.005 465.601 42.605 L 465.601 31.305 Z M 150.401 70.805 L 169.301 31.305 L 172.201 31.305 L 150.101 77.605 L 127.901 31.305 L 131.401 31.305 L 150.401 70.805 Z M 415.901 74.105 L 415.901 76.905 Q 408.801 76.905 403.801 72.155 Q 398.801 67.405 398.801 60.005 L 398.801 13.205 L 402.001 13.205 L 402.001 31.405 L 415.801 31.405 L 415.801 34.205 L 402.001 34.205 L 402.001 60.005 Q 402.001 66.105 406.051 70.105 Q 410.101 74.105 415.901 74.105 Z M 105.601 74.405 L 105.601 77.205 Q 98.501 77.205 93.501 72.455 Q 88.501 67.705 88.501 60.305 L 88.501 1.305 L 91.701 1.305 L 91.701 60.305 Q 91.701 66.405 95.751 70.405 Q 99.801 74.405 105.601 74.405 Z M 559.601 77.405 L 558.701 77.405 Q 549.101 77.405 542.201 70.255 Q 535.301 63.105 535.301 53.605 Q 535.301 44.105 542.301 37.155 Q 549.301 30.205 559.151 30.205 Q 569.001 30.205 575.951 37.155 Q 582.901 44.105 582.901 53.655 Q 582.901 63.205 576.101 70.305 Q 569.301 77.405 559.601 77.405 Z M 481.501 53.905 Q 481.501 62.405 487.651 68.555 Q 493.801 74.705 502.251 74.705 Q 510.701 74.705 516.701 68.555 Q 522.701 62.405 522.701 53.905 Q 522.701 45.405 516.701 39.255 Q 510.701 33.105 502.251 33.105 Q 493.801 33.105 487.651 39.255 Q 481.501 45.405 481.501 53.905 Z M 424.601 53.905 Q 424.601 62.305 430.751 68.455 Q 436.901 74.605 445.351 74.605 Q 453.801 74.605 459.801 68.455 Q 465.801 62.305 465.801 53.855 Q 465.801 45.405 459.751 39.205 Q 453.701 33.005 445.301 33.005 Q 436.901 33.005 430.751 39.255 Q 424.601 45.505 424.601 53.905 Z M 579.701 53.855 Q 579.701 45.405 573.651 39.205 Q 567.601 33.005 559.201 33.005 Q 550.801 33.005 544.651 39.255 Q 538.501 45.505 538.501 53.905 Q 538.501 62.305 544.651 68.455 Q 550.801 74.605 559.251 74.605 Q 567.701 74.605 573.701 68.455 Q 579.701 62.305 579.701 53.855 Z M 187.201 67.405 L 216.301 38.505 Q 210.101 33.105 202.151 33.105 Q 194.201 33.105 188.051 39.255 Q 181.901 45.405 181.901 53.405 Q 181.901 61.405 187.201 67.405 Z M 114.901 31.405 L 118.101 31.405 L 118.101 76.305 L 114.901 76.305 L 114.901 31.405 Z M 116.501 20.405 Q 113.601 20.405 113.601 17.705 Q 113.601 15.005 116.501 15.005 Q 119.401 15.005 119.401 17.705 Q 119.401 20.405 116.501 20.405 Z" vector-effect="non-scaling-stroke"/></g></svg>
    
</svg>